<svg 
    xmlns="http://www.w3.org/2000/svg">
    <g 
        id="svgGroup" 
        stroke-linecap="round" 
        fill-rule="evenodd" 
        font-size="9pt" 
        stroke="#d23c40" 
        fill="#d23c40">
        <path 
            d="M 6.934 1.625 A 50.647 50.647 0 0 0 6.77 3.689 Q 6.49 8.161 6.299 18.251 A 1026.417 1026.417 0 0 0 6.192 25.293 Q 6.098 33.157 6.068 43.508 A 3488.403 3488.403 0 0 0 6.055 53.431 Q 6.055 64.467 6.177 71.742 A 370.109 370.109 0 0 0 6.249 75.145 Q 6.371 79.84 6.587 82.47 A 52.338 52.338 0 0 0 6.592 82.533 A 0.658 0.658 0 0 1 6.603 82.651 Q 6.603 83.116 5.908 83.485 A 3.686 3.686 0 0 1 5.392 83.705 Q 4.633 83.969 3.369 84.144 Q 1.902 84.334 1.032 84.179 A 3.434 3.434 0 0 1 0.977 84.169 Q 0.58 84.092 0.362 83.93 A 0.615 0.615 0 0 1 0.098 83.412 Q 0.289 78.666 0.411 68.718 A 1501.602 1501.602 0 0 0 0.415 68.348 A 1354.384 1354.384 0 0 0 0.468 62.89 Q 0.533 54.766 0.537 43.949 A 3945.258 3945.258 0 0 0 0.537 42.396 A 3434.245 3434.245 0 0 0 0.526 33.595 Q 0.516 29.451 0.495 25.746 A 2051.745 2051.745 0 0 0 0.488 24.696 A 7932.32 7932.32 0 0 0 0.452 19.117 Q 0.436 16.917 0.421 14.924 A 4256.523 4256.523 0 0 0 0.391 11.146 A 4.956 4.956 0 0 0 0.195 9.779 A 5.384 5.384 0 0 1 0.049 9.121 A 4.016 4.016 0 0 1 0 8.51 Q 0 6.41 0.22 4.603 A 32.263 32.263 0 0 0 0.381 2.933 Q 0.439 2.087 0.439 1.332 Q 0.439 0.746 0.781 0.404 Q 1.038 0.148 1.514 0.056 A 2.8 2.8 0 0 1 1.856 0.013 Q 3.223 -0.084 5.127 0.526 A 12.597 12.597 0 0 1 5.696 0.722 Q 7.015 1.216 6.934 1.625 Z M 81.934 1.625 A 50.647 50.647 0 0 0 81.77 3.689 Q 81.49 8.161 81.299 18.251 A 1026.417 1026.417 0 0 0 81.192 25.293 Q 81.098 33.157 81.068 43.508 A 3488.403 3488.403 0 0 0 81.055 53.431 Q 81.055 64.467 81.177 71.742 A 370.109 370.109 0 0 0 81.249 75.145 Q 81.371 79.84 81.587 82.47 A 52.338 52.338 0 0 0 81.592 82.533 A 0.658 0.658 0 0 1 81.603 82.651 Q 81.603 83.116 80.908 83.485 A 3.686 3.686 0 0 1 80.392 83.705 Q 79.633 83.969 78.369 84.144 Q 76.902 84.334 76.032 84.179 A 3.434 3.434 0 0 1 75.977 84.169 Q 75.58 84.092 75.362 83.93 A 0.615 0.615 0 0 1 75.098 83.412 Q 75.289 78.666 75.411 68.718 A 1501.602 1501.602 0 0 0 75.415 68.348 A 1354.384 1354.384 0 0 0 75.468 62.89 Q 75.533 54.766 75.537 43.949 A 3945.258 3945.258 0 0 0 75.537 42.396 A 3434.245 3434.245 0 0 0 75.526 33.595 Q 75.516 29.451 75.495 25.746 A 2051.745 2051.745 0 0 0 75.488 24.696 A 7932.32 7932.32 0 0 0 75.452 19.117 Q 75.436 16.917 75.421 14.924 A 4256.523 4256.523 0 0 0 75.391 11.146 A 4.956 4.956 0 0 0 75.195 9.779 A 5.384 5.384 0 0 1 75.049 9.121 A 4.016 4.016 0 0 1 75 8.51 Q 75 6.41 75.22 4.603 A 32.263 32.263 0 0 0 75.381 2.933 Q 75.439 2.087 75.439 1.332 Q 75.439 0.746 75.781 0.404 Q 76.038 0.148 76.514 0.056 A 2.8 2.8 0 0 1 76.856 0.013 Q 78.223 -0.084 80.127 0.526 A 12.597 12.597 0 0 1 80.696 0.722 Q 82.015 1.216 81.934 1.625 Z" 
            vector-effect="non-scaling-stroke"/>
    </g>
</svg>