<svg width="47.217" height="5.451" viewBox="0 0 47.217 5.451" xmlns="http://www.w3.org/2000/svg"><g id="svgGroup" stroke-linecap="round" fill-rule="evenodd" font-size="9pt" stroke="#d23c40" stroke-width="0.25mm" fill="#d23c40" style="stroke:#d23c40;stroke-width:0.25mm;fill:#d23c40"><path d="M 47.151 3.291 A 4.827 4.827 0 0 0 47.217 2.466 A 3.445 3.445 0 0 0 47.187 2.01 A 2.541 2.541 0 0 0 46.558 0.61 A 1.627 1.627 0 0 0 46.207 0.317 Q 45.557 -0.088 44.434 0.025 A 70.749 70.749 0 0 1 43.038 0.111 Q 40.535 0.243 36.572 0.317 A 293.124 293.124 0 0 1 35.579 0.334 Q 31.568 0.397 26.115 0.379 A 861.755 861.755 0 0 1 23.584 0.366 Q 16.65 0.317 11.865 0.244 Q 8.276 0.189 5.814 0.093 A 112.46 112.46 0 0 1 4.297 0.025 A 0.998 0.998 0 0 0 4.198 0.02 Q 3.447 0.02 2.321 1.095 A 12.191 12.191 0 0 0 1.66 1.782 Q 0.519 3.058 0.162 4.034 A 2.413 2.413 0 0 0 0 4.858 Q 0 5.347 0.366 5.42 A 1.276 1.276 0 0 0 0.4 5.426 Q 0.682 5.475 1.138 5.43 A 6.527 6.527 0 0 0 1.416 5.396 A 18.244 18.244 0 0 1 1.83 5.357 Q 2.906 5.266 4.984 5.186 A 229.837 229.837 0 0 1 6.665 5.127 Q 9.711 5.031 14.336 5.071 A 402.698 402.698 0 0 1 16.992 5.103 Q 25.562 5.286 31.549 5.345 A 584.525 584.525 0 0 0 35.254 5.371 Q 40.594 5.39 43.193 5.394 A 790.374 790.374 0 0 0 44.434 5.396 Q 45.801 5.396 46.509 4.663 A 2.175 2.175 0 0 0 46.905 4.087 Q 47.074 3.736 47.151 3.291 Z" vector-effect="non-scaling-stroke"/></g></svg>